<?xml version="1.0" encoding="UTF-8"?>
<!DOCTYPE svg PUBLIC "-//W3C//DTD SVG 1.1//EN" "http://www.w3.org/Graphics/SVG/1.1/DTD/svg11.dtd">
<svg version="1.1" xmlns="http://www.w3.org/2000/svg" xmlns:xlink="http://www.w3.org/1999/xlink" x="0" y="0" width="888" height="936" viewBox="0, 0, 888, 936">
  <defs>
    <linearGradient id="Gradient_1" gradientUnits="userSpaceOnUse" x1="310.896" y1="289.714" x2="400.819" y2="289.714">
      <stop offset="0" stop-color="#FFFFFE"/>
      <stop offset="1" stop-color="#1B1A19"/>
    </linearGradient>
    <linearGradient id="Gradient_2" gradientUnits="userSpaceOnUse" x1="379.924" y1="412.366" x2="442.547" y2="412.366">
      <stop offset="0" stop-color="#FFFFFE"/>
      <stop offset="1" stop-color="#1B1A19"/>
    </linearGradient>
    <clipPath id="Clip_1">
      <path d="M442.522,389.79 C434.334,401.926 429.042,417.64 434.91,431.734 C418.876,431.288 400.776,429.596 385.344,434.952 L385.302,434.952 C384.225,425.045 382.201,415.281 379.928,405.59 L379.928,405.465 C398.604,396.029 421.84,391.665 442.522,389.79 z"/>
    </clipPath>
    <linearGradient id="Gradient_3" gradientUnits="userSpaceOnUse" x1="432.256" y1="406.958" x2="700.828" y2="406.958">
      <stop offset="0" stop-color="#FFFFFE"/>
      <stop offset="1" stop-color="#1B1A19"/>
    </linearGradient>
    <linearGradient id="Gradient_4" gradientUnits="userSpaceOnUse" x1="698.648" y1="405.628" x2="809.511" y2="405.628">
      <stop offset="0" stop-color="#FFFFFE"/>
      <stop offset="1" stop-color="#1B1A19"/>
    </linearGradient>
    <clipPath id="Clip_2">
      <path d="M747.948,383.28 C768.763,383.089 789.382,386.038 809.5,391.212 C804.152,402.3 797.662,414.61 789.864,427.958 C774.858,421.524 734.794,416.446 707.378,416.804 C705.458,413.472 702.536,410.766 698.992,408.744 C701.677,400.88 701.679,394.611 698.648,386.887 L698.648,386.854 C713.879,384.518 729.271,383.461 744.671,383.28 L747.948,383.28 z"/>
    </clipPath>
    <linearGradient id="Gradient_5" gradientUnits="userSpaceOnUse" x1="360.348" y1="564.564" x2="418.153" y2="564.564">
      <stop offset="0" stop-color="#FFFFFE"/>
      <stop offset="1" stop-color="#1B1A19"/>
    </linearGradient>
    <linearGradient id="Gradient_6" gradientUnits="userSpaceOnUse" x1="490.16" y1="689.858" x2="567.013" y2="689.858">
      <stop offset="0" stop-color="#FFFFFE"/>
      <stop offset="1" stop-color="#1B1A19"/>
    </linearGradient>
    <clipPath id="Clip_3">
      <path d="M507.739,674.298 C527.49,675.762 547.631,676.039 567.004,680.596 C557.472,689.456 548.434,697.788 540.12,705.402 C526.406,701.608 503.216,699.28 494.592,698.89 C494.548,698.792 494.528,698.676 494.482,698.574 C493.544,696.921 491.749,696.035 490.162,695.128 L490.162,695.119 C498.29,690.468 503.072,682.687 506.613,674.298 L507.739,674.298 z"/>
    </clipPath>
    <linearGradient id="Gradient_7" gradientUnits="userSpaceOnUse" x1="324.33" y1="651.888" x2="372.344" y2="651.888">
      <stop offset="0" stop-color="#FFFFFE"/>
      <stop offset="1" stop-color="#1B1A19"/>
    </linearGradient>
    <clipPath id="Clip_4">
      <path d="M345.74,633.144 C353.89,633.144 364.57,635.706 372.3,637.87 C371.273,642.676 371.041,642.514 371.523,648.655 C371.614,649.804 372.07,650.894 372.344,652.013 L372.344,652.014 C366.753,657.317 363.752,662.842 364.765,670.638 L364.728,670.638 C351.34,668.398 337.902,666.308 324.332,665.616 C328.71,655.75 333.174,645.39 337.728,634.468 C339.808,633.526 342.584,633.144 345.74,633.144 z"/>
    </clipPath>
    <linearGradient id="Gradient_8" gradientUnits="userSpaceOnUse" x1="364.348" y1="673.568" x2="506.556" y2="673.568">
      <stop offset="0" stop-color="#FFFFFE"/>
      <stop offset="1" stop-color="#1B1A19"/>
    </linearGradient>
    <clipPath id="Clip_5">
      <path d="M372.344,652.014 C372.968,653.85 373.83,655.596 375.022,657.176 C382.72,663.971 395.835,665.768 405.63,667.379 C417.652,669.357 426.803,670.47 439.324,671.634 C461.648,673.708 484.134,674.792 506.556,674.293 L506.556,674.434 C503.413,683.123 497.847,690.096 490.157,695.122 L490.15,695.122 C458.73,682.364 419.22,676.744 385.484,674.944 C382.356,674.082 378.348,672.972 374.698,672.336 C371.238,671.734 367.956,671.176 364.766,670.644 C363.284,663.562 366.528,657.59 372.344,652.014 z"/>
    </clipPath>
    <linearGradient id="Gradient_9" gradientUnits="userSpaceOnUse" x1="574.996" y1="610.266" x2="661.624" y2="610.266">
      <stop offset="0" stop-color="#FFFFFE"/>
      <stop offset="1" stop-color="#1B1A19"/>
    </linearGradient>
    <clipPath id="Clip_6">
      <path d="M650.468,588.448 C654.778,588.448 658.53,588.76 661.584,589.73 C632.846,618.154 647.26,604.035 618.344,632.088 L618.337,632.088 C604.688,626.74 589.471,626.458 574.994,625.766 L574.994,625.714 C578.874,621.361 581.057,616.064 581.774,610.34 C597.264,609.144 608.488,607.124 611.782,604.128 C616.554,599.788 621.006,594.624 624.222,589.492 C629.166,589.428 633.922,589.176 638.254,588.928 C642.676,588.678 646.776,588.448 650.468,588.448 z"/>
    </clipPath>
    <linearGradient id="Gradient_10" gradientUnits="userSpaceOnUse" x1="342.494" y1="608.048" x2="403.325" y2="608.048">
      <stop offset="0" stop-color="#FFFFFE"/>
      <stop offset="1" stop-color="#1B1A19"/>
    </linearGradient>
    <linearGradient id="Gradient_11" gradientUnits="userSpaceOnUse" x1="385.73" y1="610.828" x2="581.713" y2="610.828">
      <stop offset="0" stop-color="#FFFFFE"/>
      <stop offset="1" stop-color="#1B1A19"/>
    </linearGradient>
    <clipPath id="Clip_7">
      <path d="M403.312,596 C406.374,596.952 409.316,597.976 412.008,599.074 C412.62,599.46 413.144,599.902 413.834,600.246 C427.095,605.236 441.664,606.594 455.691,607.899 C470.717,609.297 482.387,610.094 497.901,610.771 C525.806,611.988 553.835,612.291 581.714,610.344 L581.714,610.819 C581.334,616.513 578.338,621.291 574.997,625.71 L573.317,625.71 C565.354,625.382 557.383,625.333 549.414,625.332 C514.722,619.914 423.19,610.894 400.782,613.426 C395.112,614.07 390.066,616.194 385.792,619.206 C388.436,609.202 394.3,601.202 403.312,596 z"/>
    </clipPath>
    <linearGradient id="Gradient_12" gradientUnits="userSpaceOnUse" x1="303.434" y1="693.72" x2="352.532" y2="693.72">
      <stop offset="0" stop-color="#FFFFFE"/>
      <stop offset="1" stop-color="#1B1A19"/>
    </linearGradient>
    <clipPath id="Clip_8">
      <path d="M320.49,675.802 C331.237,675.974 341.891,677.616 352.508,679.152 C344.762,684.878 322.148,695.074 328.958,711.624 C320.498,710.46 311.96,710.223 303.434,710.336 L303.434,710.295 C309.102,698.906 314.457,687.365 319.759,675.802 L320.49,675.802 z"/>
    </clipPath>
    <linearGradient id="Gradient_13" gradientUnits="userSpaceOnUse" x1="376.07" y1="516.706" x2="434.889" y2="516.706">
      <stop offset="0" stop-color="#FFFFFE"/>
      <stop offset="1" stop-color="#1B1A19"/>
    </linearGradient>
    <clipPath id="Clip_9">
      <path d="M400.44,490.606 C412.061,490.633 423.588,492.412 434.878,495.058 C432.14,505.476 430.898,518.494 433.398,524.766 C430.878,530.59 430,536.726 429.85,542.8 C412.384,537.988 394.389,532.657 376.068,533.573 L376.068,533.538 C380.288,520.199 382.837,506.433 384.912,492.624 C389.747,490.793 394.997,490.737 400.097,490.606 L400.44,490.606 z"/>
    </clipPath>
    <linearGradient id="Gradient_14" gradientUnits="userSpaceOnUse" x1="429.776" y1="546.872" x2="637.784" y2="546.872">
      <stop offset="0" stop-color="#FFFFFE"/>
      <stop offset="1" stop-color="#1B1A19"/>
    </linearGradient>
    <linearGradient id="Gradient_15" gradientUnits="userSpaceOnUse" x1="626.222" y1="554.352" x2="714.926" y2="554.352">
      <stop offset="0" stop-color="#FFFFFE"/>
      <stop offset="1" stop-color="#1B1A19"/>
    </linearGradient>
    <clipPath id="Clip_10">
      <path d="M681.663,526.806 C692.937,526.888 704.455,527.674 714.926,532.161 L714.926,532.171 C700.422,549.366 684.955,565.706 669.34,581.886 C661.11,577.324 650.124,577.894 637.668,578.596 C634.758,578.76 631.796,578.922 628.788,579.03 C629.614,574.992 628.94,571.444 626.228,568.898 C635.086,560.984 638.572,552.092 637.74,542.754 C644.464,542.186 649.42,541.324 651.892,540.086 C657.986,537.038 662.506,532.46 665.754,527.316 C675.394,526.812 670.796,526.966 679.544,526.806 L681.663,526.806 z"/>
    </clipPath>
    <linearGradient id="Gradient_16" gradientUnits="userSpaceOnUse" x1="362.674" y1="370.656" x2="441.124" y2="370.656">
      <stop offset="0" stop-color="#FFFFFE"/>
      <stop offset="1" stop-color="#1B1A19"/>
    </linearGradient>
    <clipPath id="Clip_11">
      <path d="M417.282,345.95 C418.066,345.95 418.808,345.962 419.496,345.994 C423.848,353.782 432.124,364.666 440.262,378.424 C440.828,379.268 440.541,378.856 441.124,379.662 L441.124,379.685 C419.38,382.006 396.849,385.415 377.12,395.366 L377.115,395.366 C373.44,382.844 368.475,370.755 362.692,359.07 C371.916,351.208 402.546,345.95 417.282,345.95 z"/>
    </clipPath>
    <linearGradient id="Gradient_17" gradientUnits="userSpaceOnUse" x1="338.374" y1="327.276" x2="413.77" y2="327.276">
      <stop offset="0" stop-color="#FFFFFE"/>
      <stop offset="1" stop-color="#1B1A19"/>
    </linearGradient>
    <clipPath id="Clip_12">
      <path d="M400.256,304.718 C401.996,304.718 403.71,304.764 405.386,304.856 C400.778,316.234 405.534,326.13 413.734,335.726 C394.702,336.987 374.127,339.39 357.682,349.84 L357.668,349.84 C352.261,340.171 345.553,331.346 338.374,322.944 L338.374,322.865 C338.695,322.498 338.531,322.682 338.866,322.314 C347.666,313.206 376.34,304.718 400.256,304.718 z"/>
    </clipPath>
    <linearGradient id="Gradient_18" gradientUnits="userSpaceOnUse" x1="403.612" y1="316.418" x2="699.248" y2="316.418">
      <stop offset="0" stop-color="#FFFFFE"/>
      <stop offset="1" stop-color="#1B1A19"/>
    </linearGradient>
    <clipPath id="Clip_13">
      <path d="M685.346,297.432 C691.098,304.866 698.848,326.966 699.222,335.09 C634.292,312.81 454.248,321.894 420.304,332.746 C418.762,333.184 417.546,334.165 416.791,335.564 L413.604,335.564 C405.727,326.449 401.181,316.631 405.386,304.856 C405.782,304.878 406.194,304.88 406.586,304.906 C409.028,307.462 412.006,308.778 416.36,309.962 C427.886,313.098 461.566,308.662 501.588,304.226 C551.954,298.644 612.368,293.062 651.332,302.562 C653.846,303.176 656.69,303.466 659.604,303.462 C659.604,303.462 661.182,303.646 662.11,303.382 C662.694,303.346 684.766,297.496 685.346,297.432 z"/>
    </clipPath>
    <linearGradient id="Gradient_19" gradientUnits="userSpaceOnUse" x1="676.34" y1="314.442" x2="832.91" y2="314.442">
      <stop offset="0" stop-color="#FFFFFE"/>
      <stop offset="1" stop-color="#1B1A19"/>
    </linearGradient>
    <clipPath id="Clip_14">
      <path d="M761.674,291.392 C783.533,292.303 807.039,291.448 827.586,300.348 C829.748,301.378 831.452,302.478 832.706,303.638 C833.492,314.716 832.722,326.004 830.17,337.458 C827.448,335.394 823.966,333.556 819.648,331.976 C790.566,321.344 733.476,321.882 698.93,328.424 C698.93,323.924 684.712,300.546 676.43,297.432 C702.536,293.188 729.038,291.686 755.461,291.392 L761.674,291.392 z"/>
    </clipPath>
    <linearGradient id="Gradient_20" gradientUnits="userSpaceOnUse" x1="299.372" y1="169.921" x2="332.808" y2="169.921">
      <stop offset="0" stop-color="#FFFFFE"/>
      <stop offset="1" stop-color="#1B1A19"/>
    </linearGradient>
    <linearGradient id="Gradient_21" gradientUnits="userSpaceOnUse" x1="381.342" y1="35.737" x2="439.389" y2="35.737">
      <stop offset="0" stop-color="#FFFFFE"/>
      <stop offset="1" stop-color="#1B1A19"/>
    </linearGradient>
    <clipPath id="Clip_15">
      <path d="M439.35,27.214 C420.926,35.737 401.381,41.262 381.342,44.246 L381.342,44.244 C388.356,42.007 384.843,43.134 391.882,40.864 C407.487,35.586 423.334,31.128 439.328,27.214 L439.35,27.214 z"/>
    </clipPath>
    <linearGradient id="Gradient_22" gradientUnits="userSpaceOnUse" x1="303.838" y1="225.646" x2="310.351" y2="225.646">
      <stop offset="0" stop-color="#FFFFFE"/>
      <stop offset="1" stop-color="#1B1A19"/>
    </linearGradient>
    <clipPath id="Clip_16">
      <path d="M303.839,193.216 C308.413,209.559 310.272,226.466 310.334,243.396 C309.464,248.102 308.638,252.962 307.886,258.07 L303.838,193.216 L303.839,193.216 z"/>
    </clipPath>
    <linearGradient id="Gradient_23" gradientUnits="userSpaceOnUse" x1="650.654" y1="230.594" x2="813.915" y2="230.594">
      <stop offset="0" stop-color="#FFFFFE"/>
      <stop offset="1" stop-color="#1B1A19"/>
    </linearGradient>
    <clipPath id="Clip_17">
      <path d="M768.79,205.876 C776.645,205.925 784.89,206.426 791.55,210.996 C800.038,221.249 807.213,232.467 813.914,243.938 L813.914,244.027 C794.457,238.706 773.807,238.893 753.837,240.178 C725.585,241.994 697.448,246.811 670.436,255.312 C665.402,246.216 658.802,237.962 650.714,231.746 C688.91,219.387 728.32,207.03 768.773,205.876 L768.79,205.876 z"/>
    </clipPath>
    <linearGradient id="Gradient_24" gradientUnits="userSpaceOnUse" x1="539.154" y1="654.37" x2="610.293" y2="654.37">
      <stop offset="0" stop-color="#FFFFFE"/>
      <stop offset="1" stop-color="#1B1A19"/>
    </linearGradient>
    <clipPath id="Clip_18">
      <path d="M566.677,635.878 C581.164,636.754 596.069,636.314 610.26,639.84 C598.266,651.304 586.526,662.374 575.338,672.828 C563.77,668.568 551.339,667.351 539.154,666.107 L539.154,666.082 C549.692,658.442 561.787,649.019 565.526,635.878 L566.677,635.878 z"/>
    </clipPath>
    <linearGradient id="Gradient_25" gradientUnits="userSpaceOnUse" x1="693.972" y1="357.95" x2="826.81" y2="357.95">
      <stop offset="0" stop-color="#FFFFFE"/>
      <stop offset="1" stop-color="#1B1A19"/>
    </linearGradient>
    <linearGradient id="Gradient_26" gradientUnits="userSpaceOnUse" x1="706.32" y1="450.172" x2="784.652" y2="450.172">
      <stop offset="0" stop-color="#FFFFFE"/>
      <stop offset="1" stop-color="#1B1A19"/>
    </linearGradient>
    <clipPath id="Clip_19">
      <path d="M710.426,426.868 C726.401,426.955 742.32,428.697 758.113,430.983 C767.026,432.274 776.096,433.844 784.654,436.715 L784.654,436.719 C777.104,449.279 768.885,461.414 760.562,473.468 C746.666,465.282 725.666,462.652 706.322,461.49 C709.43,453.492 708.754,441.188 709.86,428.122 C709.859,427.281 709.867,427.699 709.834,426.868 L710.426,426.868 z"/>
    </clipPath>
    <linearGradient id="Gradient_27" gradientUnits="userSpaceOnUse" x1="312.254" y1="250.614" x2="388.448" y2="250.614">
      <stop offset="0" stop-color="#FFFFFE"/>
      <stop offset="1" stop-color="#1B1A19"/>
    </linearGradient>
    <clipPath id="Clip_20">
      <path d="M373.229,225.234 C374.086,231.789 375.044,244.748 381.492,248.77 C382.532,247.99 383.656,247.226 384.8,246.466 C385.374,249.24 386.644,251.646 388.406,253.768 C365.1,255.492 329.838,263.158 313.332,275.058 C312.583,275.646 312.942,275.354 312.254,275.93 L312.254,275.706 C313.411,266.865 315.409,258.169 317.514,249.516 C319.46,246.67 322.768,243.486 325.682,241.272 C339.515,231.7 356.513,227.497 372.994,225.234 L373.229,225.234 z"/>
    </clipPath>
    <linearGradient id="Gradient_28" gradientUnits="userSpaceOnUse" x1="384.726" y1="222.898" x2="640.938" y2="222.898">
      <stop offset="0" stop-color="#FFFFFE"/>
      <stop offset="1" stop-color="#1B1A19"/>
    </linearGradient>
    <clipPath id="Clip_21">
      <path d="M608.346,192.422 C619.072,199.334 641.186,217.024 641.012,226.422 C585.833,224.555 530.33,228.143 475.66,235.677 C452.394,238.883 426.136,242.766 405.004,253.572 L402.565,253.572 C398.971,253.208 395.342,253.36 391.74,253.572 L388.26,253.572 C386.469,251.547 385.51,249.027 384.8,246.466 C426.782,218.654 537.952,204.268 581.594,203.058 C585.894,202.938 589.358,202.264 592.162,201.23 L592.184,201.276 C592.44,201.146 592.736,201.002 592.998,200.864 C593.906,200.482 594.76,200.076 595.492,199.602 C598.428,198.156 604.682,194.022 608.346,192.422 z"/>
    </clipPath>
    <linearGradient id="Gradient_29" gradientUnits="userSpaceOnUse" x1="605.342" y1="195.088" x2="779.047" y2="195.088">
      <stop offset="0" stop-color="#FFFFFE"/>
      <stop offset="1" stop-color="#1B1A19"/>
    </linearGradient>
    <clipPath id="Clip_22">
      <path d="M722.494,165.088 C734.508,165.088 745.09,166.756 753.04,170.738 C762.167,178.835 770.7,187.559 779.046,196.449 L779.046,196.555 C749.453,194.133 719.756,201.242 691.382,208.892 C674.015,213.575 656.831,219.037 639.899,225.11 L639.797,225.11 C628.147,215.159 620.884,198.757 605.448,193.756 C634.86,180.91 685.49,165.086 722.494,165.088 z"/>
    </clipPath>
    <linearGradient id="Gradient_30" gradientUnits="userSpaceOnUse" x1="674.916" y1="270.144" x2="831.06" y2="270.144">
      <stop offset="0" stop-color="#FFFFFE"/>
      <stop offset="1" stop-color="#1B1A19"/>
    </linearGradient>
    <linearGradient id="Gradient_31" gradientUnits="userSpaceOnUse" x1="392.006" y1="81.46" x2="564.103" y2="81.46">
      <stop offset="0" stop-color="#FFFFFE"/>
      <stop offset="1" stop-color="#1B1A19"/>
    </linearGradient>
    <clipPath id="Clip_23">
      <path d="M520.543,53.668 C535.265,53.622 549.816,56.037 564.104,59.384 L564.104,59.425 C522.514,68.691 480.889,83.76 444.64,106.572 C437.7,106.324 430.254,106.624 422.266,107.61 C418.5,108.074 415,108.622 411.726,109.224 C406.378,103.778 399.456,101.106 392.1,100.09 C392.616,99.762 393.098,99.466 393.62,99.136 C432.755,73.213 470.362,55.057 518.17,53.668 L520.543,53.668 z"/>
    </clipPath>
    <linearGradient id="Gradient_32" gradientUnits="userSpaceOnUse" x1="367.538" y1="175.46" x2="545.8" y2="175.46">
      <stop offset="0" stop-color="#FFFFFE"/>
      <stop offset="1" stop-color="#1B1A19"/>
    </linearGradient>
    <clipPath id="Clip_24">
      <path d="M514.014,140.948 C524.428,141.483 540.825,149.124 545.8,158.503 L545.8,158.593 C500.451,162.354 454.703,170.329 411.892,186.146 C399.051,190.89 380.532,196.913 373.669,209.98 L373.66,209.98 C370.089,207.212 368.036,203.495 367.584,199.056 C387.894,185.974 419.988,149.562 499.112,150.98 C505.708,151.096 510.304,146.368 511.284,140.956 L513.456,140.956 C513.644,140.95 513.828,140.948 514.014,140.948 z"/>
    </clipPath>
    <linearGradient id="Gradient_33" gradientUnits="userSpaceOnUse" x1="323.08" y1="165.322" x2="411.742" y2="165.322">
      <stop offset="0" stop-color="#FFFFFE"/>
      <stop offset="1" stop-color="#1B1A19"/>
    </linearGradient>
    <clipPath id="Clip_25">
      <path d="M392.183,100.104 C399.649,100.982 406.237,104.165 411.726,109.224 C365.956,117.654 366.288,138.366 366.288,138.366 L348.11,191.412 C348.11,191.412 333.346,203.67 355.614,203.67 C359.284,203.67 363.16,201.906 367.584,199.056 C367.768,203.718 370.21,207.196 373.666,209.986 C373.096,211.418 372.764,212.848 372.77,214.27 C372.77,214.486 372.778,214.668 372.782,214.884 C355.365,216.942 338.379,221.903 323.078,230.514 L323.078,230.473 C328.479,214.914 325.623,222.687 331.654,207.156 C357.402,144.324 358.894,134.61 348.93,121.296 C358.222,119.676 365.558,116.04 370.61,113.134 L372.382,112.122 C379.085,108.346 385.575,104.21 392.078,100.104 L392.183,100.104 z"/>
    </clipPath>
    <linearGradient id="Gradient_34" gradientUnits="userSpaceOnUse" x1="507.802" y1="125.14" x2="683.998" y2="125.14">
      <stop offset="0" stop-color="#FFFFFE"/>
      <stop offset="1" stop-color="#1B1A19"/>
    </linearGradient>
    <clipPath id="Clip_26">
      <path d="M635.999,95.338 C640.418,95.272 644.782,95.971 649.086,96.892 C660.951,103.65 672.51,110.921 683.998,118.295 L683.998,118.346 C637.136,119.315 583.797,135.034 541.39,154.9 C539.012,150.924 512.008,140.956 511.284,140.956 C511.934,137.336 510.99,133.412 507.882,130.416 C542.689,114.142 593.656,96.036 631.864,95.338 L635.999,95.338 z"/>
    </clipPath>
    <linearGradient id="Gradient_35" gradientUnits="userSpaceOnUse" x1="461.84" y1="95.487" x2="627.968" y2="95.487">
      <stop offset="0" stop-color="#FFFFFE"/>
      <stop offset="1" stop-color="#1B1A19"/>
    </linearGradient>
    <linearGradient id="Gradient_36" gradientUnits="userSpaceOnUse" x1="235.592" y1="809.958" x2="270.18" y2="809.958">
      <stop offset="0" stop-color="#FFFFFE"/>
      <stop offset="1" stop-color="#1B1A19"/>
    </linearGradient>
    <clipPath id="Clip_27">
      <path d="M250.842,800.226 C257.364,800.808 263.78,802.185 270.18,803.518 L270.18,803.536 C262.923,809.173 254.702,813.413 247.78,819.496 C239.834,819.497 243.813,819.428 235.843,819.702 L235.617,819.702 C241.001,813.457 245.95,806.858 250.842,800.226 z"/>
    </clipPath>
    <linearGradient id="Gradient_37" gradientUnits="userSpaceOnUse" x1="555.182" y1="157.592" x2="735.183" y2="157.592">
      <stop offset="0" stop-color="#FFFFFE"/>
      <stop offset="1" stop-color="#1B1A19"/>
    </linearGradient>
    <linearGradient id="Gradient_38" gradientUnits="userSpaceOnUse" x1="478.948" y1="724.128" x2="530.863" y2="724.128">
      <stop offset="0" stop-color="#FFFFFE"/>
      <stop offset="1" stop-color="#1B1A19"/>
    </linearGradient>
    <clipPath id="Clip_28">
      <path d="M495.25,709.166 C507.238,709.543 519.107,711.568 530.856,713.858 C519.616,724.096 510.092,732.678 502.934,739.09 C495.399,735.623 487.054,734.458 478.948,733.067 L478.948,733.059 C486.762,726.888 492.58,718.786 495.206,709.166 L495.25,709.166 z"/>
    </clipPath>
    <linearGradient id="Gradient_39" gradientUnits="userSpaceOnUse" x1="386.104" y1="463.432" x2="440.635" y2="463.432">
      <stop offset="0" stop-color="#FFFFFE"/>
      <stop offset="1" stop-color="#1B1A19"/>
    </linearGradient>
    <linearGradient id="Gradient_40" gradientUnits="userSpaceOnUse" x1="437.094" y1="473.134" x2="678.632" y2="473.134">
      <stop offset="0" stop-color="#FFFFFE"/>
      <stop offset="1" stop-color="#1B1A19"/>
    </linearGradient>
    <linearGradient id="Gradient_41" gradientUnits="userSpaceOnUse" x1="670.414" y1="497.388" x2="754.565" y2="497.388">
      <stop offset="0" stop-color="#FFFFFE"/>
      <stop offset="1" stop-color="#1B1A19"/>
    </linearGradient>
    <clipPath id="Clip_29">
      <path d="M679.269,470.63 C685.279,470.911 682.094,470.771 688.824,471.042 C710.236,471.858 738.698,472.97 754.538,481.912 C744.802,495.356 733.904,509.448 721.704,524.116 C709.438,516.856 688.578,515.836 670.544,516.688 C672.585,509.453 673.257,501.659 670.414,494.559 L670.414,494.465 C675.632,487.419 678.777,479.433 678.591,470.63 L679.269,470.63 z"/>
    </clipPath>
    <linearGradient id="Gradient_42" gradientUnits="userSpaceOnUse" x1="351.814" y1="836.256" x2="382.45" y2="836.256">
      <stop offset="0" stop-color="#FFFFFE"/>
      <stop offset="1" stop-color="#1B1A19"/>
    </linearGradient>
    <clipPath id="Clip_30">
      <path d="M361.282,826.39 L382.45,828.112 L382.45,828.118 C370.018,839.944 376.071,833.939 364.282,846.124 L364.26,846.124 L351.824,843.258 C357.288,839.112 362.804,832.784 361.282,826.39 z"/>
    </clipPath>
    <linearGradient id="Gradient_43" gradientUnits="userSpaceOnUse" x1="298.788" y1="364.442" x2="867.34" y2="364.442">
      <stop offset="0" stop-color="#FFFFFE"/>
      <stop offset="1" stop-color="#1B1A19"/>
    </linearGradient>
    <clipPath id="Clip_31">
      <path d="M529.674,30.542 C533.83,30.542 538.02,30.684 542.244,30.984 C550.496,31.57 559.386,33.202 568.632,35.602 C575.734,38.114 583.02,40.976 590.542,44.286 C698.754,91.908 827.132,159.678 859.622,261.862 C875.644,312.24 866.192,367.072 831.54,424.832 C753.446,554.988 654.826,635.866 565.178,698.312 C597.282,669.362 636.226,633.238 672.59,596.796 C780.834,488.326 824.91,398.38 840.134,355.294 C858.32,303.858 839.584,250.25 792.938,196.004 C745.126,140.4 675.816,95.83 625.368,69.798 C511.338,10.966 436.832,59.504 388.082,90.392 C380.692,95.074 373.714,99.5 367.308,103.1 L365.45,104.162 C357.502,108.728 341.012,117.51 323.378,114.156 C315.084,110.164 307.056,111.816 299.03,116.102 L298.786,112.207 L298.786,109.736 C310.689,102.531 324.339,100.184 338.038,99.986 C364.024,99.986 438.246,30.54 529.674,30.542 z"/>
    </clipPath>
    <linearGradient id="Gradient_44" gradientUnits="userSpaceOnUse" x1="210.504" y1="848.942" x2="356.377" y2="848.942">
      <stop offset="0" stop-color="#FFFFFE"/>
      <stop offset="1" stop-color="#1B1A19"/>
    </linearGradient>
    <clipPath id="Clip_32">
      <path d="M246.554,829.854 C249.032,831.911 252.141,832.938 255.13,833.988 C282.382,842.648 307.924,846.48 325.114,847.726 L356.376,854.926 L356.376,855.033 C356.242,855.191 356.322,855.098 356.136,855.312 C352.468,859.69 349.588,863.928 347.278,868.004 L323.634,862.554 C322.646,862.042 321.556,861.604 320.33,861.264 C303.852,856.682 252.718,846.1 234.884,846.694 C229.904,845.428 222.316,844.378 210.582,844.152 C214.988,840.796 220.008,836.418 225.616,830.69 C231.591,830.255 237.577,829.923 243.568,829.854 L246.554,829.854 z"/>
    </clipPath>
    <linearGradient id="Gradient_45" gradientUnits="userSpaceOnUse" x1="189.226" y1="884.14" x2="342.714" y2="884.14">
      <stop offset="0" stop-color="#FFFFFE"/>
      <stop offset="1" stop-color="#1B1A19"/>
    </linearGradient>
    <clipPath id="Clip_33">
      <path d="M206.119,854.47 C210.207,854.45 214.293,854.598 218.374,854.824 C207.57,862.538 198.882,872.176 213.298,879.386 C232.706,889.09 318.308,908.488 323.518,900.504 C326.666,895.682 331.674,884.308 331.038,874.886 L342.714,877.574 L342.714,877.687 C340.032,884.346 338.657,891.415 337.416,898.456 C335.39,910.5 335.126,912.046 323.272,912.046 L322.422,912.092 C240.968,921.066 199.062,892.926 190.764,871.836 C188.828,866.906 187.938,860.172 193.338,854.718 C201.841,854.472 197.732,854.549 205.667,854.47 L206.119,854.47 z"/>
    </clipPath>
    <linearGradient id="Gradient_46" gradientUnits="userSpaceOnUse" x1="285.632" y1="733.73" x2="327.883" y2="733.73">
      <stop offset="0" stop-color="#FFFFFE"/>
      <stop offset="1" stop-color="#1B1A19"/>
    </linearGradient>
    <clipPath id="Clip_34">
      <path d="M306.506,720.562 C313.23,720.562 320.938,721.128 327.878,721.96 C324.9,725.092 323.074,729.144 322.356,735.066 C318.238,735.058 315.216,735.5 313.782,736.522 C309.814,739.543 306.44,743.251 303.064,746.896 L303.049,746.896 C297.258,745.977 291.45,745.171 285.632,744.445 L285.632,744.433 C289.925,736.681 294.018,728.82 298.078,720.944 C300.57,720.678 303.434,720.562 306.506,720.562 z"/>
    </clipPath>
    <linearGradient id="Gradient_47" gradientUnits="userSpaceOnUse" x1="322.376" y1="740.68" x2="438.7" y2="740.68">
      <stop offset="0" stop-color="#FFFFFE"/>
      <stop offset="1" stop-color="#1B1A19"/>
    </linearGradient>
    <clipPath id="Clip_35">
      <path d="M327.878,721.96 C337.104,723.074 344.98,724.656 347.328,726.022 L347.11,725.866 L347.27,725.672 C370.534,735.55 411.198,743.5 438.68,744.332 C436.557,750.288 432.34,754.982 427.982,759.408 L427.885,759.408 C421.368,758.646 424.642,758.984 418.062,758.394 C402.085,750.138 384.101,745.794 366.653,741.815 C352.178,738.513 337.283,735.368 322.376,735.066 L322.376,734.933 C322.855,729.806 324.706,725.946 327.878,721.96 z"/>
    </clipPath>
    <linearGradient id="Gradient_48" gradientUnits="userSpaceOnUse" x1="427.974" y1="753.836" x2="493.574" y2="753.836">
      <stop offset="0" stop-color="#FFFFFE"/>
      <stop offset="1" stop-color="#1B1A19"/>
    </linearGradient>
    <clipPath id="Clip_36">
      <path d="M464.451,741.326 C474.241,742.54 483.962,744.289 493.576,746.496 C483.404,753.23 473.488,759.828 463.872,766.332 C460.464,765.156 454.478,763.792 443.57,761.828 C438.396,760.87 433.187,760.123 427.974,759.418 L427.974,759.416 C432.651,755.204 436.239,750.104 438.68,744.332 C447.924,744.612 455.684,744.09 460.778,742.562 C463.169,741.77 461.99,742.183 464.315,741.326 L464.451,741.326 z"/>
    </clipPath>
    <linearGradient id="Gradient_49" gradientUnits="userSpaceOnUse" x1="257.548" y1="775.424" x2="295.815" y2="775.424">
      <stop offset="0" stop-color="#FFFFFE"/>
      <stop offset="1" stop-color="#1B1A19"/>
    </linearGradient>
    <linearGradient id="Gradient_50" gradientUnits="userSpaceOnUse" x1="285.934" y1="797.844" x2="375.923" y2="797.844">
      <stop offset="0" stop-color="#FFFFFE"/>
      <stop offset="1" stop-color="#1B1A19"/>
    </linearGradient>
    <linearGradient id="Gradient_51" gradientUnits="userSpaceOnUse" x1="366.426" y1="793.952" x2="452.447" y2="793.952">
      <stop offset="0" stop-color="#FFFFFE"/>
      <stop offset="1" stop-color="#1B1A19"/>
    </linearGradient>
    <clipPath id="Clip_37">
      <path d="M423.317,769.28 C433.098,770.387 442.797,772.118 452.426,774.14 C430.75,789.054 410.792,803.632 393.206,818.608 L366.426,816.427 L366.426,816.408 C370.904,813.198 373.669,808.459 375.882,803.546 C389.744,805.616 400.636,806.092 403.624,803.804 C413.382,795.045 421.834,782.599 423.162,769.28 L423.317,769.28 z"/>
    </clipPath>
    <linearGradient id="Gradient_52" gradientUnits="userSpaceOnUse" x1="211.152" y1="80.687" x2="262.472" y2="80.687">
      <stop offset="0" stop-color="#FFFFFE"/>
      <stop offset="1" stop-color="#1B1A19"/>
    </linearGradient>
    <clipPath id="Clip_38">
      <path d="M236.561,67.904 C238.196,67.955 237.324,67.905 239.176,68.074 C257.29,70.228 260.306,71.004 262.464,71.954 C252.524,70.008 250.646,76.268 246.996,82.53 C238.94,96.232 224.759,94.231 211.152,91.362 L211.152,91.348 C219.287,81.639 221.605,68.896 236.18,67.904 L236.561,67.904 z"/>
    </clipPath>
    <linearGradient id="Gradient_53" gradientUnits="userSpaceOnUse" x1="89.763" y1="98.299" x2="124.964" y2="98.299">
      <stop offset="0" stop-color="#FFFFFE"/>
      <stop offset="1" stop-color="#1B1A19"/>
    </linearGradient>
    <clipPath id="Clip_39">
      <path d="M114.135,87.336 C117.347,87.365 119.808,89.35 121.808,91.656 C123.324,93.916 124.838,96.334 124.932,99.478 C125.116,102.64 123.172,105.592 120.918,106.968 C118.632,108.406 116.166,109.138 113.678,109.258 C117.954,107.028 121.864,103.32 120.912,99.85 C120.054,96.526 116.386,91.992 113.932,92.51 C110.848,92.7 106.9,96.306 103.132,99.094 C99.188,102.277 94.85,104.811 89.764,105.374 L89.764,105.364 C94.001,103.15 97.191,99.496 100.454,96.094 C102.114,94.32 103.834,92.614 105.838,90.944 C107.874,89.388 110.226,87.674 113.642,87.346 L113.863,87.336 L114.135,87.336 z"/>
    </clipPath>
    <linearGradient id="Gradient_54" gradientUnits="userSpaceOnUse" x1="252.12" y1="306.936" x2="264.087" y2="306.936">
      <stop offset="0" stop-color="#FFFFFE"/>
      <stop offset="1" stop-color="#1B1A19"/>
    </linearGradient>
    <clipPath id="Clip_40">
      <path d="M253.732,290.88 C256.123,296.942 258.521,303.001 260.806,309.104 C261.785,311.717 263.494,315.625 264.082,318.682 C262.565,323.987 256.365,323.322 252.118,322.086 L252.118,321.972 L253.73,290.88 L253.732,290.88 z"/>
    </clipPath>
    <linearGradient id="Gradient_55" gradientUnits="userSpaceOnUse" x1="6.242" y1="230.362" x2="244.298" y2="230.362">
      <stop offset="0" stop-color="#FFFFFE"/>
      <stop offset="1" stop-color="#1B1A19"/>
    </linearGradient>
  </defs>
  <g id="Layer_1">
    <path d="M393.602,263.81 C392.768,265.686 392.57,267.6 393.136,269.546 C396.414,280.864 398.696,288.724 400.808,294.376 C374.856,294.334 342.938,303.208 331.422,315.122 C331.134,315.452 331.275,315.286 330.998,315.618 L330.993,315.618 C325.727,310.878 319.798,306.885 312.9,305.052 L312.854,305.276 C312.794,304.91 312.738,304.556 312.676,304.186 C311.897,299.756 311.34,295.295 310.896,290.821 L310.896,290.696 C312.428,287.205 316.372,285.492 319.38,283.454 C335.504,271.828 373.492,264.756 393.602,263.81 z" fill="url(#Gradient_1)"/>
    <g clip-path="url(#Clip_1)">
      <path d="M442.522,389.79 C434.334,401.926 429.042,417.64 434.91,431.734 C418.876,431.288 400.776,429.596 385.344,434.952 L385.302,434.952 C384.225,425.045 382.201,415.282 379.928,405.591 L379.928,405.465 C398.605,396.029 421.84,391.665 442.522,389.79 z" fill="url(#Gradient_2)"/>
    </g>
    <path d="M557.16,382.338 C608.752,382.338 655.626,386.868 682.634,389.75 C686.746,390.188 690.59,389.29 693.972,387.592 C695.404,387.354 696.976,387.108 698.636,386.856 C701.78,393.766 701.646,401.246 698.992,408.744 C696.058,407.068 692.708,405.852 689.086,405.212 C614.044,391.906 470.034,397.622 446.18,406.612 C439.898,408.976 437.116,415.136 436.436,423.01 C436.034,428.918 436.167,426.025 436.019,431.686 L434.892,431.686 C429.018,417.229 434.773,402.291 442.522,389.79 C448.078,389.38 452.714,389.424 455.55,390.164 L455.932,388.7 C457.832,388.94 459.774,388.962 461.732,388.668 C493.044,383.992 525.96,382.338 557.16,382.338 z" fill="url(#Gradient_3)"/>
    <g clip-path="url(#Clip_2)">
      <path d="M747.932,383.28 C768.752,383.088 789.377,386.037 809.5,391.212 C804.152,402.3 797.662,414.61 789.864,427.958 C774.858,421.524 734.794,416.446 707.378,416.804 C705.458,413.472 702.536,410.766 698.992,408.744 C701.677,400.88 701.679,394.611 698.648,386.887 L698.648,386.854 C713.885,384.517 729.283,383.461 744.688,383.28 L747.932,383.28 z" fill="url(#Gradient_4)"/>
    </g>
    <path d="M380.695,543.75 C393.408,544.043 405.883,547.011 418.124,550.238 C411.566,556.972 402.66,572.668 403.804,585.362 C389.637,581.244 375.066,578.55 360.348,577.523 L360.348,577.458 C367.812,557.535 364.081,567.6 371.538,547.26 C371.878,546.324 372.172,545.402 372.5,544.468 C374.843,543.902 377.262,543.805 379.662,543.75 L380.695,543.75 z" fill="url(#Gradient_5)"/>
    <g clip-path="url(#Clip_3)">
      <path d="M507.743,674.298 C527.493,675.763 547.633,676.039 567.004,680.596 C557.472,689.456 548.434,697.788 540.12,705.402 C526.406,701.608 503.216,699.28 494.592,698.89 C494.548,698.792 494.528,698.676 494.482,698.574 C493.544,696.921 491.749,696.035 490.162,695.129 L490.162,695.119 C498.29,690.468 503.072,682.687 506.613,674.298 L507.743,674.298 z" fill="url(#Gradient_6)"/>
    </g>
    <g clip-path="url(#Clip_4)">
      <path d="M345.74,633.144 C353.89,633.144 364.57,635.706 372.3,637.87 C370.924,642.738 370.874,647.668 372.344,652.014 C366.753,657.317 363.752,662.842 364.765,670.638 L364.728,670.638 C351.34,668.398 337.902,666.308 324.332,665.616 C328.71,655.75 333.174,645.39 337.728,634.468 C339.808,633.526 342.584,633.144 345.74,633.144 z" fill="url(#Gradient_7)"/>
    </g>
    <g clip-path="url(#Clip_5)">
      <path d="M372.344,652.014 C372.968,653.85 373.83,655.596 375.022,657.176 C382.72,663.971 395.835,665.768 405.63,667.379 C417.652,669.357 426.803,670.47 439.324,671.634 C461.648,673.708 484.134,674.792 506.556,674.293 L506.556,674.434 C503.413,683.123 497.847,690.096 490.157,695.122 L490.15,695.122 C458.73,682.364 419.22,676.744 385.484,674.944 C382.356,674.082 378.348,672.972 374.698,672.336 C371.238,671.734 367.956,671.176 364.766,670.644 C363.284,663.562 366.528,657.59 372.344,652.014 z" fill="url(#Gradient_8)"/>
    </g>
    <g clip-path="url(#Clip_6)">
      <path d="M650.468,588.448 C654.778,588.448 658.53,588.76 661.584,589.73 C632.846,618.154 647.26,604.035 618.344,632.088 L618.338,632.088 C604.689,626.74 589.471,626.458 574.994,625.766 L574.994,625.714 C578.874,621.361 581.057,616.064 581.774,610.34 C597.264,609.144 608.488,607.124 611.782,604.128 C616.554,599.788 621.006,594.624 624.222,589.492 C629.166,589.428 633.922,589.176 638.254,588.928 C642.676,588.678 646.776,588.448 650.468,588.448 z" fill="url(#Gradient_9)"/>
    </g>
    <path d="M356.889,587.692 C372.646,588.288 388.204,591.645 403.312,596 C394.3,601.202 388.436,609.202 385.792,619.206 C382.188,621.742 379.124,624.894 376.768,628.398 C365.609,625.121 354.179,622.55 342.494,622.948 L342.494,622.913 C347.282,611.229 351.877,599.467 356.438,587.692 L356.889,587.692 z" fill="url(#Gradient_10)"/>
    <g clip-path="url(#Clip_7)">
      <path d="M403.312,596 C406.374,596.952 409.316,597.976 412.008,599.074 C412.62,599.46 413.144,599.902 413.834,600.246 C427.095,605.236 441.664,606.595 455.691,607.899 C470.717,609.297 482.387,610.095 497.901,610.771 C525.806,611.988 553.835,612.291 581.714,610.344 L581.714,610.819 C581.334,616.513 578.338,621.291 574.997,625.71 L573.323,625.71 C565.358,625.382 557.385,625.333 549.414,625.332 C514.722,619.914 423.19,610.894 400.782,613.426 C395.112,614.07 390.066,616.194 385.792,619.206 C388.436,609.202 394.3,601.202 403.312,596 z" fill="url(#Gradient_11)"/>
    </g>
    <g clip-path="url(#Clip_8)">
      <path d="M320.481,675.802 C331.231,675.974 341.888,677.616 352.508,679.152 C344.762,684.878 322.148,695.074 328.958,711.624 C320.498,710.46 311.96,710.223 303.434,710.336 L303.434,710.295 C309.102,698.906 314.457,687.365 319.759,675.802 L320.481,675.802 z" fill="url(#Gradient_12)"/>
    </g>
    <g clip-path="url(#Clip_9)">
      <path d="M400.45,490.606 C412.068,490.634 423.592,492.413 434.878,495.058 C432.14,505.476 430.898,518.494 433.398,524.766 C430.878,530.59 430,536.726 429.85,542.8 C412.384,537.988 394.389,532.657 376.068,533.573 L376.068,533.538 C380.288,520.199 382.837,506.433 384.912,492.624 C389.745,490.794 394.992,490.737 400.089,490.606 L400.45,490.606 z" fill="url(#Gradient_13)"/>
    </g>
    <path d="M433.414,524.808 C433.828,525.863 433.599,525.348 434.102,526.354 C439.214,534.332 588.12,546.926 637.74,542.754 C638.572,552.092 635.086,560.984 626.228,568.898 C624.922,567.668 623.184,566.656 620.84,565.96 C610.584,562.936 489.31,547.518 440.8,546.178 C437.022,544.964 433.382,543.842 429.85,542.8 C429.88,536.148 431.159,530.965 433.383,524.808 L433.414,524.808 z" fill="url(#Gradient_14)"/>
    <g clip-path="url(#Clip_10)">
      <path d="M681.676,526.806 C692.946,526.888 704.459,527.676 714.926,532.161 L714.926,532.171 C700.422,549.366 684.955,565.706 669.34,581.886 C661.11,577.324 650.124,577.894 637.668,578.596 C634.758,578.76 631.796,578.922 628.788,579.03 C629.614,574.992 628.94,571.444 626.228,568.898 C635.086,560.984 638.572,552.092 637.74,542.754 C644.464,542.186 649.42,541.324 651.892,540.086 C657.986,537.038 662.506,532.46 665.754,527.316 C675.39,526.812 670.796,526.966 679.533,526.806 L681.676,526.806 z" fill="url(#Gradient_15)"/>
    </g>
    <g clip-path="url(#Clip_11)">
      <path d="M417.282,345.95 C418.066,345.95 418.808,345.962 419.496,345.994 C423.848,353.782 432.124,364.666 440.262,378.424 C440.828,379.268 440.541,378.856 441.124,379.662 L441.124,379.685 C419.38,382.006 396.849,385.415 377.12,395.366 L377.115,395.366 C373.44,382.844 368.475,370.755 362.692,359.07 C371.916,351.208 402.546,345.95 417.282,345.95 z" fill="url(#Gradient_16)"/>
    </g>
    <g clip-path="url(#Clip_12)">
      <path d="M400.256,304.718 C401.996,304.718 403.71,304.764 405.386,304.856 C400.778,316.234 405.534,326.13 413.734,335.726 C394.701,336.987 374.127,339.391 357.681,349.84 L357.668,349.84 C352.261,340.171 345.553,331.346 338.374,322.944 L338.374,322.865 C338.695,322.498 338.531,322.682 338.866,322.314 C347.666,313.206 376.34,304.718 400.256,304.718 z" fill="url(#Gradient_17)"/>
    </g>
    <g clip-path="url(#Clip_13)">
      <path d="M685.346,297.432 C691.098,304.866 698.848,326.966 699.222,335.09 C634.292,312.81 454.248,321.894 420.304,332.746 C418.762,333.184 417.546,334.165 416.791,335.564 L413.604,335.564 C405.727,326.448 401.181,316.631 405.386,304.856 C405.782,304.878 406.194,304.88 406.586,304.906 C409.028,307.462 412.006,308.778 416.36,309.962 C427.886,313.098 461.566,308.662 501.588,304.226 C551.954,298.644 612.368,293.062 651.332,302.562 C653.846,303.176 656.69,303.466 659.604,303.462 C659.604,303.462 661.182,303.646 662.11,303.382 C662.694,303.346 684.766,297.496 685.346,297.432 z" fill="url(#Gradient_18)"/>
    </g>
    <g clip-path="url(#Clip_14)">
      <path d="M761.656,291.392 C783.521,292.303 807.033,291.446 827.586,300.348 C829.748,301.378 831.452,302.478 832.706,303.638 C833.492,314.716 832.722,326.004 830.17,337.458 C827.448,335.394 823.966,333.556 819.648,331.976 C790.566,321.344 733.476,321.882 698.93,328.424 C698.93,323.924 684.712,300.546 676.43,297.432 C702.542,293.187 729.05,291.685 755.479,291.392 L761.656,291.392 z" fill="url(#Gradient_19)"/>
    </g>
    <path d="M313.876,117.014 C315.548,117.272 317.096,117.636 318.53,118.096 L318.606,118.482 C319.834,118.916 321.038,119.276 322.232,119.626 C334.13,125.976 335.222,142.356 329.376,172.67 C328.596,175.138 327.782,177.678 326.912,180.38 C323.244,191.742 318.752,205.708 314.662,222.828 C312.902,205.672 308.732,188.132 302.61,173.498 L299.386,121.836 C304.173,118.882 308.001,117.545 313.587,117.014 L313.876,117.014 z" fill="url(#Gradient_20)"/>
    <g clip-path="url(#Clip_15)">
      <path d="M439.35,27.214 C420.926,35.737 401.381,41.262 381.342,44.246 L381.342,44.244 C388.356,42.007 384.843,43.134 391.882,40.864 C407.487,35.586 423.334,31.128 439.329,27.214 L439.35,27.214 z" fill="url(#Gradient_21)"/>
    </g>
    <g clip-path="url(#Clip_16)">
      <path d="M303.839,193.216 C308.413,209.559 310.272,226.466 310.334,243.396 C309.464,248.102 308.638,252.962 307.886,258.07 L303.838,193.216 L303.839,193.216 z" fill="url(#Gradient_22)"/>
    </g>
    <g clip-path="url(#Clip_17)">
      <path d="M768.78,205.876 C779,205.876 787.09,207.366 791.55,210.996 C800.038,221.249 807.213,232.467 813.914,243.938 L813.914,244.027 C794.457,238.706 773.807,238.893 753.837,240.178 C725.585,241.994 697.448,246.811 670.436,255.312 C665.402,246.216 658.802,237.962 650.714,231.746 C675.948,222.74 734.402,205.876 768.78,205.876 z" fill="url(#Gradient_23)"/>
    </g>
    <g clip-path="url(#Clip_18)">
      <path d="M566.67,635.878 C581.159,636.754 596.067,636.314 610.26,639.84 C598.266,651.304 586.526,662.374 575.338,672.828 C563.77,668.568 551.339,667.351 539.154,666.107 L539.154,666.082 C549.692,658.442 561.788,649.019 565.526,635.878 L566.67,635.878 z" fill="url(#Gradient_24)"/>
    </g>
    <path d="M749.908,334.146 C771.596,334.964 802.338,334.004 822.15,344.484 C826.096,346.84 826.694,348.726 826.75,349.74 C826.52,350.434 826.324,351.126 826.076,351.816 C823.14,360.122 819.178,370.172 813.928,381.736 C773.482,369.962 730.632,372.376 704.244,375.836 C705.126,373.2 705.548,370.352 705.262,367.368 C704.808,362.61 703.3,355.86 701.874,349.24 C701.206,346.136 699.988,343.12 697.934,340.698 C695.418,338.024 696.737,339.308 693.972,336.85 L693.972,336.794 C711.577,334.88 729.284,334.384 746.977,334.146 L749.908,334.146 z" fill="url(#Gradient_25)"/>
    <g clip-path="url(#Clip_19)">
      <path d="M710.411,426.868 C726.391,426.954 742.315,428.696 758.113,430.983 C767.026,432.274 776.096,433.844 784.654,436.715 L784.654,436.719 C777.104,449.279 768.885,461.414 760.562,473.468 C746.666,465.282 725.666,462.652 706.322,461.49 C709.43,453.492 708.754,441.188 709.86,428.122 C709.859,427.281 709.867,427.699 709.834,426.868 L710.411,426.868 z" fill="url(#Gradient_26)"/>
    </g>
    <g clip-path="url(#Clip_20)">
      <path d="M373.229,225.234 C374.086,231.789 375.044,244.748 381.492,248.77 C382.532,247.99 383.656,247.226 384.8,246.466 C385.374,249.24 386.644,251.646 388.406,253.768 C365.1,255.492 329.838,263.158 313.332,275.058 C312.583,275.646 312.942,275.354 312.254,275.93 L312.254,275.704 C313.411,266.864 315.409,258.169 317.514,249.516 C319.46,246.67 322.768,243.486 325.682,241.272 C339.514,231.7 356.512,227.497 372.993,225.234 L373.229,225.234 z" fill="url(#Gradient_27)"/>
    </g>
    <g clip-path="url(#Clip_21)">
      <path d="M608.346,192.422 C619.072,199.334 641.186,217.024 641.012,226.422 C585.833,224.555 530.33,228.143 475.66,235.677 C452.394,238.883 426.136,242.767 405.004,253.572 L402.567,253.572 C398.971,253.208 395.34,253.36 391.737,253.572 L388.26,253.572 C386.469,251.547 385.51,249.027 384.8,246.466 C426.782,218.654 537.952,204.268 581.594,203.058 C585.894,202.938 589.358,202.264 592.162,201.23 L592.184,201.276 C592.44,201.146 592.736,201.002 592.998,200.864 C593.906,200.482 594.76,200.076 595.492,199.602 C598.428,198.156 604.682,194.022 608.346,192.422 z" fill="url(#Gradient_28)"/>
    </g>
    <g clip-path="url(#Clip_22)">
      <path d="M722.494,165.088 C734.508,165.088 745.09,166.756 753.04,170.738 C762.167,178.835 770.7,187.559 779.046,196.449 L779.046,196.555 C749.453,194.133 719.755,201.242 691.382,208.892 C674.015,213.575 656.83,219.037 639.899,225.11 L639.797,225.11 C628.147,215.159 620.884,198.757 605.448,193.756 C634.86,180.91 685.49,165.086 722.494,165.088 z" fill="url(#Gradient_29)"/>
    </g>
    <path d="M774.028,249.78 C798.234,249.782 817.368,252.922 821.696,259.8 C826.101,269.626 828.824,280.052 831.043,290.55 L830.948,290.55 C807.172,281.315 774.979,281.967 750.175,282.902 C727.26,283.766 704.438,286.037 681.74,289.23 C681.73,289.108 681.748,288.998 681.73,288.874 C680.688,280.461 677.942,272.423 674.914,264.554 L674.914,264.536 C706.808,254.164 740.578,250.127 774.028,249.78 z" fill="url(#Gradient_30)"/>
    <g clip-path="url(#Clip_23)">
      <path d="M520.53,53.668 C535.256,53.621 549.811,56.036 564.104,59.384 L564.104,59.425 C522.514,68.691 480.889,83.76 444.64,106.572 C437.7,106.324 430.254,106.624 422.266,107.61 C418.5,108.074 415,108.622 411.726,109.224 C406.378,103.778 399.456,101.106 392.1,100.09 C392.616,99.762 393.098,99.466 393.62,99.136 C432.759,73.21 470.365,55.057 518.177,53.668 L520.53,53.668 z" fill="url(#Gradient_31)"/>
    </g>
    <g clip-path="url(#Clip_24)">
      <path d="M514.014,140.948 C524.429,141.483 540.824,149.124 545.8,158.503 L545.8,158.593 C500.451,162.354 454.703,170.329 411.892,186.146 C399.051,190.89 380.532,196.913 373.669,209.98 L373.66,209.98 C370.089,207.212 368.036,203.495 367.584,199.056 C387.894,185.974 419.988,149.562 499.112,150.98 C505.708,151.096 510.304,146.368 511.284,140.956 L513.456,140.956 C513.644,140.95 513.828,140.948 514.014,140.948 z" fill="url(#Gradient_32)"/>
    </g>
    <g clip-path="url(#Clip_25)">
      <path d="M392.182,100.104 C399.648,100.982 406.237,104.165 411.726,109.224 C365.956,117.654 366.288,138.366 366.288,138.366 L348.11,191.412 C348.11,191.412 333.346,203.67 355.614,203.67 C359.284,203.67 363.16,201.906 367.584,199.056 C367.768,203.718 370.21,207.196 373.666,209.986 C373.096,211.418 372.764,212.848 372.77,214.27 C372.77,214.486 372.778,214.668 372.782,214.884 C355.365,216.942 338.38,221.903 323.078,230.514 L323.078,230.472 C328.479,214.914 325.623,222.687 331.654,207.156 C357.402,144.324 358.894,134.61 348.93,121.296 C358.222,119.676 365.558,116.04 370.61,113.134 L372.382,112.122 C379.085,108.346 385.575,104.209 392.078,100.104 L392.182,100.104 z" fill="url(#Gradient_33)"/>
    </g>
    <g clip-path="url(#Clip_26)">
      <path d="M635.99,95.338 C640.412,95.272 644.78,95.971 649.086,96.892 C660.951,103.65 672.51,110.921 683.998,118.295 L683.998,118.346 C637.136,119.315 583.797,135.034 541.39,154.9 C539.012,150.924 512.008,140.956 511.284,140.956 C511.934,137.336 510.99,133.412 507.882,130.416 C542.696,114.138 593.658,96.036 631.875,95.338 L635.99,95.338 z" fill="url(#Gradient_34)"/>
    </g>
    <path d="M585.496,67.51 C587.188,67.51 588.836,67.566 590.426,67.682 C599.862,71.28 609.632,75.64 619.758,80.866 C625.138,83.665 622.401,82.229 627.968,85.176 L627.968,85.196 C588.879,88.582 533.242,103.621 499.192,123.512 L499.029,123.512 C487.898,115.69 475.061,111.284 461.874,108.462 C490.832,92.972 549.5,67.508 585.496,67.51 z" fill="url(#Gradient_35)"/>
    <g clip-path="url(#Clip_27)">
      <path d="M250.842,800.226 C257.364,800.808 263.78,802.185 270.18,803.518 L270.18,803.536 C262.923,809.173 254.702,813.413 247.78,819.496 C239.834,819.497 243.813,819.428 235.843,819.702 L235.617,819.702 C241.001,813.457 245.95,806.858 250.842,800.226 z" fill="url(#Gradient_36)"/>
    </g>
    <path d="M684.975,128.56 C691.829,128.616 698.631,129.76 704.916,132.514 C715.291,139.785 725.29,147.568 735.184,155.474 L735.184,155.49 C688.354,152.83 641.459,168.115 598.958,186.574 C595.084,177.972 582.006,167.92 560.03,161.414 C558.536,160.972 556.914,160.592 555.204,160.256 C595.366,145.427 637.186,129.836 680.494,128.56 L684.975,128.56 z" fill="url(#Gradient_37)"/>
    <g clip-path="url(#Clip_28)">
      <path d="M495.25,709.166 C507.238,709.543 519.107,711.568 530.856,713.858 C519.616,724.096 510.092,732.678 502.934,739.09 C495.399,735.623 487.054,734.458 478.948,733.067 L478.948,733.059 C486.762,726.888 492.58,718.786 495.206,709.166 L495.25,709.166 z" fill="url(#Gradient_38)"/>
    </g>
    <path d="M416.796,441.558 C423.562,441.558 430.594,441.786 436.862,442.126 C437.578,445.926 438.846,449.098 440.636,451.746 C436.39,462.05 436.358,473.148 438.688,484.572 C438.42,485.066 438.551,484.819 438.294,485.314 L438.236,485.314 C421.288,481.466 403.424,478.501 386.104,481.588 L386.104,481.556 C386.912,468.579 387.014,469.983 386.753,453.592 C386.706,450.661 386.428,447.739 386.266,444.812 L387.448,444.602 C387.51,444.938 387.356,445.376 387.234,445.528 C389.722,442.54 402.684,441.558 416.796,441.558 z" fill="url(#Gradient_39)"/>
    <path d="M440.644,451.756 C446.568,460.141 456.657,460.587 466.016,460.086 C525.366,454.712 617.826,465.678 666.132,469.524 C669.524,470.042 673.768,470.35 678.59,470.598 C679.292,478.966 675.684,487.052 670.39,494.5 C670.162,494.044 669.94,493.572 669.68,493.186 C663.78,484.484 486.286,463.812 442.296,480.278 C441.088,480.732 439.862,482.326 438.688,484.572 C436.297,472.502 436.467,463.375 440.632,451.756 L440.644,451.756 z" fill="url(#Gradient_40)"/>
    <g clip-path="url(#Clip_29)">
      <path d="M679.273,470.63 C685.279,470.911 682.095,470.771 688.824,471.042 C710.236,471.858 738.698,472.97 754.538,481.912 C744.802,495.356 733.904,509.448 721.704,524.116 C709.438,516.856 688.578,515.836 670.544,516.688 C672.585,509.453 673.257,501.659 670.414,494.56 L670.414,494.464 C675.632,487.419 678.777,479.433 678.591,470.63 L679.273,470.63 z" fill="url(#Gradient_41)"/>
    </g>
    <g clip-path="url(#Clip_30)">
      <path d="M361.282,826.39 L382.45,828.112 L382.45,828.118 C370.018,839.944 376.071,833.939 364.282,846.124 L364.261,846.124 L351.824,843.258 C357.288,839.112 362.804,832.784 361.282,826.39 z" fill="url(#Gradient_42)"/>
    </g>
    <g clip-path="url(#Clip_31)">
      <path d="M529.674,30.542 C533.83,30.542 538.02,30.684 542.244,30.984 C550.496,31.57 559.386,33.202 568.632,35.602 C575.734,38.114 583.02,40.976 590.542,44.286 C698.754,91.908 827.132,159.678 859.622,261.862 C875.644,312.24 866.192,367.072 831.54,424.832 C753.446,554.988 654.826,635.866 565.178,698.312 C597.282,669.362 636.226,633.238 672.59,596.796 C780.834,488.326 824.91,398.38 840.134,355.294 C858.32,303.858 839.584,250.25 792.938,196.004 C745.126,140.4 675.816,95.83 625.368,69.798 C511.338,10.966 436.832,59.504 388.082,90.392 C380.692,95.074 373.714,99.5 367.308,103.1 L365.45,104.162 C357.502,108.728 341.012,117.51 323.378,114.156 C315.084,110.164 307.056,111.816 299.03,116.102 L298.786,112.21 L298.786,109.736 C310.69,102.531 324.339,100.184 338.038,99.986 C364.024,99.986 438.246,30.54 529.674,30.542 z" fill="url(#Gradient_43)"/>
    </g>
    <g clip-path="url(#Clip_32)">
      <path d="M246.554,829.854 C249.032,831.911 252.141,832.938 255.13,833.988 C282.382,842.648 307.924,846.48 325.114,847.726 L356.376,854.926 L356.376,855.033 C356.242,855.191 356.322,855.098 356.136,855.312 C352.468,859.69 349.588,863.928 347.278,868.004 L323.634,862.554 C322.646,862.042 321.556,861.604 320.33,861.264 C303.852,856.682 252.718,846.1 234.884,846.694 C229.904,845.428 222.316,844.378 210.582,844.152 C214.988,840.796 220.008,836.418 225.616,830.69 C231.585,830.255 237.566,829.923 243.551,829.854 L246.554,829.854 z" fill="url(#Gradient_44)"/>
    </g>
    <g clip-path="url(#Clip_33)">
      <path d="M206.149,854.47 C210.227,854.451 214.303,854.599 218.374,854.824 C207.57,862.538 198.882,872.176 213.298,879.386 C232.706,889.09 318.308,908.488 323.518,900.504 C326.666,895.682 331.674,884.308 331.038,874.886 L342.714,877.574 L342.714,877.686 C340.032,884.346 338.657,891.415 337.416,898.456 C335.39,910.5 335.126,912.046 323.272,912.046 L322.422,912.092 C240.968,921.066 199.062,892.926 190.764,871.836 C188.828,866.906 187.938,860.172 193.338,854.718 C201.835,854.472 197.732,854.549 205.647,854.47 L206.149,854.47 z" fill="url(#Gradient_45)"/>
    </g>
    <g clip-path="url(#Clip_34)">
      <path d="M306.506,720.562 C313.23,720.562 320.938,721.128 327.878,721.96 C324.9,725.092 323.074,729.144 322.356,735.066 C318.238,735.058 315.216,735.5 313.782,736.522 C309.814,739.543 306.44,743.251 303.064,746.896 L303.05,746.896 C297.259,745.977 291.45,745.172 285.632,744.445 L285.632,744.433 C289.925,736.681 294.018,728.82 298.078,720.944 C300.57,720.678 303.434,720.562 306.506,720.562 z" fill="url(#Gradient_46)"/>
    </g>
    <g clip-path="url(#Clip_35)">
      <path d="M327.878,721.96 C337.104,723.074 344.98,724.656 347.328,726.022 L347.11,725.866 L347.27,725.672 C370.534,735.55 411.198,743.5 438.68,744.332 C436.557,750.288 432.339,754.983 427.982,759.408 L427.886,759.408 C421.368,758.646 424.643,758.985 418.062,758.394 C402.086,750.138 384.101,745.794 366.653,741.815 C352.178,738.513 337.283,735.368 322.376,735.066 L322.376,734.933 C322.855,729.806 324.706,725.946 327.878,721.96 z" fill="url(#Gradient_47)"/>
    </g>
    <g clip-path="url(#Clip_36)">
      <path d="M464.452,741.326 C474.242,742.54 483.963,744.289 493.576,746.496 C483.404,753.23 473.488,759.828 463.872,766.332 C460.464,765.156 454.478,763.792 443.57,761.828 C438.396,760.87 433.187,760.123 427.974,759.418 L427.974,759.416 C432.651,755.204 436.239,750.104 438.68,744.332 C447.924,744.612 455.684,744.09 460.778,742.562 C463.169,741.77 461.99,742.183 464.314,741.326 L464.452,741.326 z" fill="url(#Gradient_48)"/>
    </g>
    <path d="M280.228,754.31 C285.437,754.86 290.624,755.591 295.81,756.324 C290.428,764.604 287.578,773.514 293.75,779.198 C287.816,782.394 286.284,789.608 285.892,796.518 C276.564,794.005 267.092,792.115 257.548,790.656 L257.548,790.65 C265.63,778.895 272.914,766.625 280.098,754.31 L280.228,754.31 z" fill="url(#Gradient_49)"/>
    <path d="M293.783,779.232 C294.331,779.801 294.042,779.517 294.654,780.082 C305.146,787.948 346.994,799.234 375.882,803.546 C373.972,808.596 370.968,812.94 366.406,816.426 L348.73,814.984 C328.878,805.64 310.54,801.03 296.71,799.46 C289.528,797.462 293.12,798.439 285.934,796.529 L285.934,795.991 C286.198,789.359 288.029,783.092 293.7,779.232 L293.783,779.232 z" fill="url(#Gradient_50)"/>
    <g clip-path="url(#Clip_37)">
      <path d="M423.318,769.28 C433.099,770.387 442.797,772.118 452.426,774.14 C430.75,789.054 410.792,803.632 393.206,818.608 L366.426,816.427 L366.426,816.408 C370.904,813.198 373.669,808.459 375.882,803.546 C389.744,805.616 400.636,806.092 403.624,803.804 C413.382,795.045 421.834,782.599 423.162,769.28 L423.318,769.28 z" fill="url(#Gradient_51)"/>
    </g>
    <g clip-path="url(#Clip_38)">
      <path d="M236.561,67.904 C238.196,67.955 237.324,67.905 239.176,68.074 C257.29,70.228 260.306,71.004 262.464,71.954 C252.524,70.008 250.646,76.268 246.996,82.53 C238.94,96.232 224.759,94.231 211.152,91.362 L211.152,91.348 C219.287,81.639 221.605,68.896 236.18,67.904 L236.561,67.904 z" fill="url(#Gradient_52)"/>
    </g>
    <g clip-path="url(#Clip_39)">
      <path d="M114.137,87.336 C117.348,87.365 119.808,89.351 121.808,91.656 C123.324,93.916 124.838,96.334 124.932,99.478 C125.116,102.64 123.172,105.592 120.918,106.968 C118.632,108.406 116.166,109.138 113.678,109.258 C117.954,107.028 121.864,103.32 120.912,99.85 C120.054,96.526 116.386,91.992 113.932,92.51 C110.848,92.7 106.9,96.306 103.132,99.094 C99.188,102.277 94.85,104.811 89.764,105.374 L89.764,105.364 C94.001,103.15 97.191,99.496 100.454,96.094 C102.114,94.32 103.834,92.614 105.838,90.944 C107.874,89.388 110.226,87.674 113.642,87.346 L113.859,87.336 L114.137,87.336 z" fill="url(#Gradient_53)"/>
    </g>
    <g clip-path="url(#Clip_40)">
      <path d="M253.732,290.88 C256.123,296.942 258.521,303.001 260.806,309.104 C261.785,311.717 263.494,315.625 264.082,318.682 C262.565,323.987 256.365,323.323 252.118,322.086 L252.118,321.968 L253.73,290.88 L253.732,290.88 z" fill="url(#Gradient_54)"/>
    </g>
    <path d="M244.296,183.037 L244.296,203.737 C243.477,203.724 243.891,203.73 243.056,203.72 L243.056,186.34 C231.358,186.916 219.558,188.222 207.932,191.302 C196.33,194.342 184.956,199.416 175.112,206.514 C165.162,213.52 157.17,222.452 150.106,231.26 C143,240.074 136.624,248.87 129.01,256.156 C121.444,263.418 112.614,269.22 102.516,272.524 C92.486,275.958 81.632,277.352 70.714,277.678 C63.482,277.75 56.228,277.388 48.974,276.74 C34.462,274.254 20.244,270.554 6.266,266.272 C27.94,271.126 50.06,274.59 71.978,274.374 C82.896,274.048 93.754,272.652 103.782,269.22 C113.88,265.914 122.708,260.114 130.276,252.852 C137.89,245.566 144.262,236.77 151.372,227.954 C158.434,219.148 166.426,210.216 176.38,203.208 C181.228,199.71 186.458,196.714 191.894,194.202 C197.496,191.614 203.312,189.54 209.196,187.996 C220.64,184.843 232.499,183.823 244.296,183.037 z" fill="url(#Gradient_55)"/>
    <path d="M831.54,424.832 C753.446,554.984 654.826,635.87 565.178,698.312 C597.282,669.362 636.226,633.234 672.59,596.796 C780.834,488.326 824.91,398.38 840.136,355.292 C858.32,303.86 839.584,250.25 792.938,196.004 C745.128,140.402 675.816,95.83 625.368,69.798 C511.338,10.966 436.832,59.504 388.082,90.39 C380.692,95.076 373.714,99.5 367.312,103.098 L365.45,104.162 C357.502,108.726 341.014,117.512 323.378,114.158 C315.082,110.166 307.056,111.818 299.03,116.102 C292.822,119.416 286.614,124.268 280.274,129.22 C265.464,140.792 248.838,153.762 227.504,152.538 C225.906,152.302 224.218,152.156 222.524,152.014 C222.416,152 222.312,151.996 222.206,151.976 L222.204,151.986 C195.396,149.882 157.55,159.032 135.456,160.902 C135.522,160.93 135.584,160.96 135.648,160.988 C105.522,163.754 69.608,165.716 65.552,163.574 C63.75,162.028 61.862,156.382 60.036,150.924 C59.462,149.212 58.854,147.43 58.222,145.636 C60.298,146.272 62.492,146.602 64.838,146.456 C85.54,145.162 142.142,138.326 175.456,140.956 C259.384,147.58 274.168,123.94 298.636,109.82 C308.488,104.134 319.9,99.986 338.036,99.986 C365.206,99.986 445.088,24.086 542.246,30.984 C550.496,31.57 559.388,33.204 568.632,35.602 C575.734,38.114 583.02,40.974 590.542,44.286 C698.754,91.91 827.132,159.678 859.624,261.862 C875.644,312.24 866.192,367.07 831.54,424.832 M393.206,818.608 L348.73,814.984 C328.878,805.64 310.54,801.03 296.712,799.46 C283.144,795.608 268.776,792.086 257.544,790.656 C264.596,780.288 272.122,768.268 280.106,754.296 C284.32,754.742 289.838,755.464 295.812,756.324 C290.154,765.026 287.168,774.468 294.654,780.082 C310.178,791.726 394.41,810.862 403.622,803.8 C410.566,798.48 422.616,781.48 423.164,769.26 C433.342,770.402 444.688,772.464 452.426,774.136 C430.75,789.054 410.792,803.632 393.206,818.608 M364.278,846.128 L351.824,843.258 C357.288,839.112 362.806,832.784 361.282,826.39 L382.456,828.112 C376.006,834.018 369.936,840.01 364.278,846.128 M356.136,855.312 C352.466,859.69 349.588,863.928 347.278,868.004 L323.634,862.554 C322.646,862.046 321.556,861.608 320.33,861.264 C303.852,856.682 252.72,846.1 234.886,846.694 C229.904,845.428 222.318,844.382 210.58,844.152 C214.988,840.796 220.008,836.418 225.616,830.69 C234.488,830.042 241.294,829.808 246.526,829.832 C248.252,831.284 251.006,832.678 255.132,833.988 C282.382,842.648 307.926,846.48 325.116,847.722 L356.454,854.948 C356.35,855.07 356.238,855.19 356.136,855.312 M337.416,898.456 C335.39,910.5 335.126,912.046 323.272,912.046 L322.422,912.092 C240.97,921.066 199.064,892.926 190.764,871.836 C188.828,866.906 187.938,860.172 193.338,854.718 C204.014,854.316 212.192,854.426 218.372,854.824 C207.57,862.538 198.882,872.176 213.3,879.382 C232.706,889.09 318.308,908.488 323.52,900.504 C326.666,895.682 331.674,884.308 331.038,874.882 L342.75,877.582 C339.66,885.492 338.408,892.57 337.416,898.456 M250.842,800.222 C255.564,800.624 262.394,801.82 270.2,803.522 C264.236,808.468 253.384,814.058 247.78,819.496 C243.918,819.418 239.836,819.504 235.612,819.71 C240.366,814.136 245.446,807.686 250.842,800.222 M319.764,675.792 C328.064,675.758 340.892,677.374 352.51,679.152 C344.762,684.878 322.148,695.074 328.956,711.624 C320.606,710.574 311.47,710.014 303.412,710.332 C308.708,699.632 314.162,688.132 319.764,675.792 M495.206,709.16 C505.534,709.346 520.372,711.738 530.856,713.858 C519.616,724.096 510.092,732.678 502.936,739.09 C498.156,736.624 488.74,734.59 478.94,733.066 C487.864,725.996 493.546,716.94 495.206,709.16 M463.872,766.332 C460.464,765.156 454.476,763.792 443.574,761.828 C437.352,760.706 427.27,759.078 418.062,758.39 C402.368,748.354 323.33,729.686 313.784,736.526 C312.034,737.776 307.612,741.754 303.064,746.898 C295.87,745.776 290.136,744.976 285.626,744.444 C289.668,737.108 293.82,729.284 298.076,720.944 C313.288,719.328 342.408,723.152 347.328,726.022 L347.11,725.866 L347.272,725.668 C378.358,738.874 440.54,748.632 460.778,742.562 C462.006,742.194 463.18,741.754 464.352,741.312 C475.26,742.644 486.952,744.914 493.574,746.492 C483.402,753.23 473.488,759.828 463.872,766.332 M337.728,634.464 C345.184,631.104 361.578,634.866 372.3,637.874 C370.342,644.788 371,651.862 375.022,657.176 C384.046,669.086 467.47,675.526 507.334,674.276 C529.408,675.34 555.272,677.586 567.004,680.596 C557.472,689.456 548.434,697.788 540.12,705.398 C526.404,701.608 503.216,699.28 494.592,698.89 C494.55,698.792 494.528,698.676 494.482,698.574 C490.446,690.176 426.834,676.578 385.484,674.944 C382.356,674.082 378.346,672.968 374.698,672.336 C352.57,668.48 336.022,666.026 324.332,665.616 C328.71,655.75 333.174,645.386 337.728,634.464 M575.338,672.828 C567.686,669.636 553.966,667.51 539.122,666.104 C551.832,657.922 563.564,644.612 565.536,635.842 C583.274,636.3 602.084,637.586 610.26,639.84 C598.266,651.304 586.526,662.374 575.338,672.828 M356.444,587.682 C367.398,587.726 394.578,591.976 412.006,599.07 C412.62,599.46 413.144,599.898 413.834,600.246 C437.016,611.89 597.552,617.066 611.784,604.128 C616.556,599.788 621.006,594.624 624.222,589.492 C629.164,589.432 633.922,589.176 638.254,588.928 C647.834,588.386 655.914,587.932 661.584,589.73 C647.304,604.014 632.71,618.276 618.342,632.092 C605.828,625.89 567.746,625.258 549.414,625.332 C514.722,619.914 423.19,610.894 400.782,613.428 C390.334,614.608 381.916,620.734 376.768,628.398 C364.218,624.804 352.096,622.206 342.48,622.948 C347.05,611.754 351.708,599.984 356.444,587.682 M419.496,345.992 C423.846,353.784 432.124,364.664 440.26,378.422 C440.526,378.872 440.85,379.262 441.142,379.684 C421.116,381.172 391.624,387.492 377.118,395.368 C372.608,380.34 367.264,368.082 362.692,359.07 C372.41,350.788 405.868,345.396 419.496,345.992 M338.34,322.906 C338.522,322.696 338.708,322.48 338.868,322.316 C348.458,312.386 381.666,303.176 406.584,304.908 C409.03,307.464 412.006,308.78 416.36,309.964 C442.386,317.042 581.406,285.51 651.334,302.564 C653.846,303.176 656.692,303.468 659.604,303.462 C659.604,303.462 661.182,303.648 662.112,303.382 C665.808,303.148 669.476,302.404 672.648,301.146 C707.154,295.092 798.286,286.368 827.586,300.346 C829.75,301.38 831.452,302.48 832.706,303.636 C833.492,314.716 832.722,326.006 830.17,337.458 C827.448,335.392 823.966,333.554 819.648,331.976 C790.566,321.342 713.496,321.92 678.952,328.46 C616.954,303.732 455.042,321.636 420.304,332.746 C418.342,333.372 417.234,334.378 416.724,335.694 C399.134,335.548 370.302,341.038 357.67,349.844 C351.61,339.378 344.982,330.204 338.34,322.906 M312.9,305.052 L312.854,305.276 C312.794,304.912 312.74,304.554 312.678,304.186 C312.018,300.166 311.304,295.754 310.886,290.72 C311.468,287.968 316.866,285.268 319.38,283.454 C335.506,271.83 373.492,264.756 393.604,263.808 C392.768,265.686 392.574,267.598 393.136,269.546 C396.414,280.866 398.698,288.724 400.812,294.378 C374.856,294.334 342.94,303.208 331.422,315.124 C331.26,315.29 331.146,315.454 330.994,315.62 C324.594,309.942 318.386,306.216 312.9,305.052 M313.874,117.014 C315.548,117.274 317.096,117.636 318.53,118.096 L318.606,118.484 C319.834,118.916 321.038,119.278 322.234,119.626 C334.13,125.974 335.222,142.356 329.374,172.67 C328.596,175.138 327.782,177.678 326.91,180.38 C323.244,191.744 318.752,205.708 314.662,222.83 C312.904,205.672 308.734,188.132 302.61,173.498 C300.368,168.14 297.896,163.134 295.152,158.738 C289.122,149.074 282.19,142.714 274.85,139.916 C277.796,137.724 280.662,135.488 283.462,133.3 C289.42,128.64 294.624,124.69 299.386,121.836 C304.612,118.708 309.304,116.944 313.874,117.014 M598.958,186.576 C595.084,177.972 582.006,167.92 560.032,161.414 C558.538,160.972 556.914,160.592 555.204,160.258 C598.324,142.828 677.45,118.944 704.916,132.514 C714.986,139.654 725.182,147.33 735.206,155.494 C693.028,151.114 630.688,172.392 598.958,186.576 M639.834,225.134 C635.908,223.338 631.75,221.954 627.31,221.17 C590.8,214.726 447.064,229.724 404.656,253.75 C386.634,251.448 334.504,259.792 313.33,275.058 C312.912,275.362 312.584,275.664 312.214,275.964 C313.366,267.612 315.15,258.724 317.514,249.518 C319.46,246.672 322.768,243.486 325.682,241.274 C337.776,232.086 359.952,226.876 373.226,225.204 C375.01,246.144 381.492,248.77 381.492,248.77 C420.628,219.446 536.76,204.302 581.594,203.056 C585.892,202.938 589.358,202.264 592.16,201.23 L592.184,201.278 C592.44,201.144 592.734,201.002 593,200.866 C593.904,200.482 594.76,200.076 595.492,199.604 C629.664,182.764 717.562,152.97 753.04,170.74 C762.166,178.956 770.948,187.586 779.156,196.568 C737.66,191.524 659.782,217.926 639.834,225.134 M670.436,255.31 C665.4,246.216 658.804,237.964 650.714,231.746 C683.45,220.064 772.084,195.158 791.552,210.996 C800.084,221.598 807.686,232.634 813.974,244.044 C780.106,233.736 708.546,242.406 670.436,255.31 M681.728,288.874 C680.632,280.998 678.32,272.632 674.908,264.54 C722.948,247.954 811.716,243.936 821.696,259.8 C825.986,269.828 829.166,280.106 831.052,290.592 C801.268,277.294 723.458,283.004 681.74,289.232 C681.728,289.11 681.746,288.998 681.728,288.874 M813.928,381.738 C773.482,369.96 730.632,372.374 704.244,375.836 C705.126,373.2 705.55,370.354 705.262,367.368 C704.808,362.612 703.302,355.862 701.876,349.242 C701.208,346.134 699.988,343.122 697.934,340.698 C696.776,339.332 695.418,338.038 693.914,336.8 C731.366,332.868 800.768,331.712 822.15,344.486 C826.096,346.84 826.694,348.726 826.75,349.742 C826.52,350.434 826.322,351.124 826.076,351.816 C823.14,360.122 819.178,370.172 813.928,381.738 M789.864,427.958 C774.858,421.526 734.796,416.448 707.378,416.804 C703.872,410.716 697.084,406.626 689.086,405.21 C614.044,391.906 470.036,397.624 446.18,406.612 C439.898,408.98 437.116,415.138 436.436,423.008 C436.166,426.122 436.024,429.044 436.016,431.792 C419.092,430.754 396.718,430.492 385.302,434.964 C384.056,424.37 382.166,414.512 379.902,405.48 C391.666,397.582 442.394,386.73 455.55,390.164 L455.932,388.698 C457.834,388.94 459.774,388.96 461.73,388.668 C544.834,376.262 639.294,385.124 682.636,389.75 C686.746,390.19 690.59,389.292 693.972,387.59 C715.49,384.02 764.206,378.462 809.5,391.212 C804.152,402.3 797.664,414.61 789.864,427.958 M760.562,473.468 C746.666,465.28 725.666,462.652 706.322,461.492 C709.43,453.492 708.754,441.188 709.86,428.122 C709.898,427.68 709.824,427.29 709.834,426.862 C736.114,426.88 773.584,432.55 784.654,436.714 C777.638,448.266 769.638,460.546 760.562,473.468 M721.704,524.118 C709.438,516.858 688.578,515.836 670.544,516.688 C673.366,507.116 672.7,497.642 669.68,493.188 C663.78,484.482 486.288,463.812 442.298,480.28 C440.952,480.784 439.582,482.654 438.288,485.326 C422.492,481.32 400.148,478.65 386.102,481.588 C387.17,468.62 387.124,456.328 386.266,444.81 L387.45,444.602 C387.51,444.938 387.358,445.376 387.234,445.53 C390.916,441.11 417.524,441.082 436.862,442.124 C439.332,455.292 447.634,461.754 466.018,460.086 C525.368,454.71 617.826,465.676 666.132,469.524 C671.75,470.38 679.488,470.688 688.824,471.044 C710.236,471.86 738.7,472.97 754.538,481.91 C744.804,495.356 733.904,509.45 721.704,524.118 M403.802,585.362 C389.192,581.078 371.988,578.082 360.324,577.522 C364.016,567.768 367.752,557.71 371.54,547.26 C371.88,546.324 372.17,545.402 372.5,544.468 C378.198,543.136 390.86,542.894 418.126,550.238 C411.566,556.972 402.66,572.668 403.802,585.362 M669.34,581.882 C661.11,577.32 650.126,577.894 637.668,578.596 C634.758,578.76 631.798,578.922 628.788,579.03 C630.012,573.05 628.062,568.092 620.84,565.96 C610.584,562.936 489.308,547.518 440.802,546.178 C411.644,536.8 389.954,532.574 376.058,533.57 C380.368,519.358 383.226,505.68 384.914,492.624 C394.222,488.888 417.544,490.692 434.876,495.056 C431.894,506.398 430.632,520.932 434.104,526.354 C439.91,535.41 631.19,550.436 651.892,540.086 C657.984,537.038 662.506,532.46 665.754,527.316 C687.664,525.824 705.572,527.53 714.932,532.164 C701.324,548.132 686.17,564.742 669.34,581.882 M444.642,106.572 C437.7,106.326 430.252,106.624 422.266,107.61 C365.884,114.576 366.29,138.368 366.29,138.368 L348.112,191.414 C348.112,191.414 333.346,203.672 355.616,203.67 C376.122,203.668 402.75,149.254 499.112,150.98 C510.122,151.176 515.638,137.89 507.882,130.416 C533.5,116.942 615.604,88.246 649.086,96.89 C659.744,103.028 671.618,110.21 684.078,118.346 C636.92,117.552 560.224,145.708 533.276,158.58 C474.864,158.982 372.688,188.014 372.77,214.27 C372.77,214.486 372.78,214.67 372.782,214.884 C358.466,216.52 336.968,221.77 323.06,230.526 C325.588,222.796 328.454,214.968 331.654,207.156 C357.402,144.326 358.894,134.612 348.932,121.296 C358.22,119.676 365.556,116.04 370.61,113.134 L372.384,112.122 C379.024,108.386 386.116,103.89 393.62,99.136 C434.12,73.464 486.874,40.08 564.198,59.408 C520.808,67.066 465.318,93.28 444.642,106.572 M499.106,123.56 C489.606,117.068 477.334,111.34 461.874,108.462 C492.194,92.244 555.096,65.088 590.426,67.682 C599.862,71.28 609.632,75.638 619.758,80.866 C622.276,82.166 625.046,83.618 628.002,85.194 C584.54,87.38 519.996,110.908 499.106,123.56 M252.114,322.084 L253.73,290.874 C253.73,290.874 264.082,316.91 264.082,318.68 C262.464,325.63 252.114,322.084 252.114,322.084 M306.992,329.308 C280.364,317.724 267.352,330.232 266.682,330.908 C253.68,335.52 229.106,328.886 218.824,325.226 L209.398,311.964 C220.384,317.572 234.456,324.092 240.036,323.864 C261.798,339.22 290.836,299.462 289.632,291.034 C288.338,281.976 317.472,179.726 247.92,161.656 C246.124,159.638 243.796,158.076 241.226,156.73 C251.706,154.602 260.964,149.598 269.466,143.764 C276.976,145.094 284.316,151.148 290.76,161.476 C296.138,170.092 300.554,181.186 303.84,193.214 C308.28,209.468 310.594,227.408 310.332,243.398 C309.464,248.102 308.638,252.962 307.886,258.072 C307.814,258.554 307.73,258.998 307.66,259.488 C303.556,280.51 305.786,294.102 307.574,305.024 C309.094,314.3 310.228,321.222 306.992,329.308 M116.86,209.052 C114.078,193.936 110.492,174.54 109.266,168.258 C112.944,168.008 116.602,167.74 120.152,167.458 L116.86,209.052 z M62.724,167.82 C64.066,168.552 66.734,169.024 70.414,169.278 L72.232,199.222 C68.332,186.32 65.222,176.052 62.724,167.82 M100.454,96.094 C102.116,94.322 103.832,92.616 105.838,90.944 C107.874,89.388 110.226,87.674 113.642,87.346 C117.198,87.126 120.27,89.47 121.81,91.658 C123.324,93.916 124.836,96.334 124.932,99.48 C125.116,102.64 123.17,105.592 120.916,106.968 C118.632,108.406 116.166,109.138 113.678,109.258 C117.956,107.028 121.866,103.32 120.912,99.852 C120.054,96.526 116.386,91.994 113.932,92.51 C110.85,92.7 106.9,96.304 103.132,99.096 C99.334,101.97 94.842,105.18 89.744,105.376 C94.134,103.098 97.08,99.542 100.454,96.094 M239.176,68.074 C257.288,70.23 260.306,71.004 262.464,71.954 C240.9,67.73 257.288,102.14 211.144,91.362 C218.906,84.03 221.062,65.916 239.176,68.074 M391.882,40.866 C406.928,36 422.578,30.954 439.376,27.204 C417.932,36.81 398.72,42 381.332,44.25 C384.832,43.138 388.342,42.01 391.882,40.866 M874.42,257.156 C840.04,149.052 707.994,79.014 596.8,30.076 C502.756,-11.31 438.634,9.428 387.1,26.094 C362.902,33.922 341.138,40.938 319.586,40.806 C281.516,31.94 254.396,15.044 228.826,25.808 C203.224,36.588 174.486,19.34 156.374,40.04 C138.26,60.742 60.204,102.586 35.622,97.412 C34.43,110.202 38.946,129.304 48.662,139.496 C52.312,151.196 67.498,201.42 73.682,221.918 L80.086,243.134 L75.612,169.492 C76.728,169.514 77.884,169.528 79.096,169.528 C86.318,169.528 95.106,169.142 104.058,168.592 C105.776,177.244 115.238,228.846 115.338,229.4 L118.904,248.842 L125.376,167.036 C133.084,166.392 139.976,165.748 144.946,165.26 C162.682,173.758 178.44,183.55 191.896,194.202 C197.494,191.616 203.314,189.54 209.198,187.998 C220.824,184.916 232.624,183.614 244.322,183.038 L244.322,203.738 C243.9,203.722 243.478,203.732 243.056,203.72 L243.056,186.342 C231.358,186.918 219.558,188.222 207.932,191.302 C196.332,194.342 184.954,199.416 175.114,206.512 C165.162,213.52 157.17,222.452 150.106,231.26 C142.998,240.076 136.624,248.872 129.012,256.156 C121.444,263.418 112.616,269.218 102.516,272.524 C92.488,275.958 81.632,277.352 70.714,277.676 C63.482,277.75 56.228,277.388 48.976,276.742 C34.248,275.426 19.524,272.83 5,269.578 C26.256,276.088 48.056,281.316 70.628,282.852 C81.906,283.384 93.442,282.864 104.752,279.958 C112.124,278.176 119.174,274.988 125.73,270.996 C124.048,274.608 121.54,277.99 118.398,280.95 C112.08,286.99 103.91,291.494 95.428,295.082 C86.898,298.67 77.884,301.306 68.732,303.342 C59.568,305.342 50.232,306.764 40.796,307.218 C50.24,307.628 59.74,307.066 69.172,305.89 C78.602,304.68 88.008,302.854 97.206,299.94 C106.366,296.996 115.482,293.13 123.498,286.802 C127.468,283.632 131.126,279.758 133.836,275.06 C136.146,271.102 137.602,266.538 138.142,261.886 C146.186,254.884 153.028,246.974 159.868,239.75 C167.33,231.792 174.98,224.592 183.71,219.442 C191.534,214.602 200.16,211.526 209.178,209.602 C243.478,244.166 255.216,284.632 236.028,318.164 C229.03,315.984 214.618,309.056 202.242,302.342 L192.446,297.03 L215.54,329.54 L216.292,329.814 C217.504,330.26 237.956,337.664 255.428,337.664 C262.892,337.664 269.812,336.31 274.456,332.494 L274.12,332.084 C279.354,329.524 290.114,326.962 307.18,335.084 L309.49,336.178 L310.616,333.884 C312.616,329.802 313.618,325.984 314.014,322.244 C321.732,326.876 334.21,339.486 345.812,360.368 C359.816,385.574 388.928,453.726 356.944,541.968 C339.208,590.898 322.074,632.854 305.826,668.596 C305.486,668.828 305.13,669.05 304.84,669.312 L305.278,669.808 C291.9,699.16 279.13,724.258 267.138,745.44 C267.056,745.534 266.976,745.624 266.896,745.722 L266.95,745.764 C233.428,804.898 205.972,833.538 188.246,839.332 L187.04,839.726 L186.022,840.484 C174.266,849.238 170.64,863.086 176.318,877.518 C186.782,904.124 227.016,929.296 292.858,929.296 C302.582,929.296 312.88,928.746 323.706,927.57 C348.288,927.41 350.648,913.402 352.724,901.034 C354.368,891.284 356.41,879.156 368.034,865.28 C400.19,826.918 450.618,793.538 509.014,754.89 C614.392,685.144 745.538,598.342 844.85,432.82 C881.902,371.07 891.85,311.968 874.42,257.156" fill="#0B0B09"/>
  </g>
</svg>